<svg xmlns="http://www.w3.org/2000/svg" width="1920" height="253" viewBox="0 0 1920 253">
  <g id="Group_1381" data-name="Group 1381" transform="translate(0 -174)">
    <rect id="Rectangle_1905" data-name="Rectangle 1905" width="1920" height="253" transform="translate(0 174)" fill="#3b5b13"/>
    <g id="Group_1316" data-name="Group 1316" transform="translate(-2012 834.257)" opacity="0.05">
      <path id="Path_2295" data-name="Path 2295" d="M1398.847,192.954c-.959.055-1.917.159-2.876.159q-120.493.011-240.986.007h-3.158v-2.761c0-10.132-.44-20.288.123-30.388.567-10.167,1.922-20.308,3.309-30.409,1.848-13.459,4.534-26.764,9.143-39.6,2.122-5.906,4.631-11.641,8.673-16.562a16.794,16.794,0,0,1,3.346-3.493c-10.378,28.145-17.288,56.51-11.97,86.649.277-2.9.591-5.792.824-8.694,1.138-14.189,2.766-28.312,6.405-42.108a104.223,104.223,0,0,1,3.959-10.823,4.059,4.059,0,0,1,1.736-1.9c-.706,4.914-1.513,9.816-2.1,14.744-1.554,13.1-3,26.22-1.238,39.409.406,3.035,1.531,5.975,2.475,9.523,1.35-13.854,2.227-27.01,4.015-40.041,1.8-13.129,4.868-26.013,12.582-37.823-1.287,9.2-2.851,17.827-3.608,26.521-.758,8.711-.991,17.5-.936,26.243a72.552,72.552,0,0,0,4.73,25.736l.709-.02c1.942-21.008,3.884-42.016,5.786-62.593.656,4.161,1.449,8.876,2.13,13.607.71,4.929,1.406,9.864,1.935,14.815.521,4.873.981,9.763,1.18,14.658s.044,9.786.382,14.685c4.235-31.14,8.258-62.276,7.334-93.792,2.1,7.56,3.374,33.152,4.021,78.629,1.177-9.565,2.516-19.1,6.25-28.076a57.9,57.9,0,0,1,2.729-5.36,25.122,25.122,0,0,1,1.6-2.276c-.98,6.814-2.105,13.363-2.828,19.957-1.026,9.357-1.672,18.758.22,28.09a45.412,45.412,0,0,0,2.729,8.225c6.589-24.37,11.206-48.9,8.309-74.326,2.433,2.894,5.055,15.369,6.267,33.357.772,11.448.653,22.957.9,33.256,1.539-12.5,2.1-26.4,6.6-39.714l1.182,43.947.646.041c.417-3.453.848-6.906,1.247-10.362,2.016-17.486,4.434-34.909,9.3-51.873a95.447,95.447,0,0,1,4.5-11.125,6.729,6.729,0,0,1,1.892-2.215c-3.094,26.181-7.245,52.267-3.387,78.733,7.552-16.35,15.359-32.582,16.946-50.949,5.811,14.672,6.774,30.034,6.774,45.569,5.462-19.7,7.435-39.431.51-59.289,8.083,10.014,10.212,21.936,11.187,34.324,3.3-20.228,5.378-40.782,15.137-59.327-6.08,27.36-11.054,54.786-7.744,83.184,5.828-5.331,11.237-27.928,9.094-38.55a28.894,28.894,0,0,1,4.642,12.394,110.83,110.83,0,0,1,1.235,13.177c.2,4.276.043,8.569.278,12.866,7.4-18.3,7.521-37.076,3.636-56.161,5.3,12.446,7.39,25.537,8.088,38.96,2.014-15.441,3.276-30.971,8.2-45.85.052,23.306-1.329,46.645,3.446,69.7a153.016,153.016,0,0,0,8.33-59.018c.576,2.693,1.256,5.369,1.7,8.083.464,2.85.779,5.731,1.016,8.609.231,2.8.362,5.62.387,8.431.025,2.893-.079,5.79-.224,8.68-.145,2.873-.412,5.741-.543,8.618,4.643-21.017,7.84-42.526,21.168-60.458-9.052,24.959-16.864,50.08-13.521,77.276,11.266-8.122,19.273-23.187,15.085-43.8,1.977,2.642,4.081,10.351,4.627,19.465.4,6.7.079,13.436.222,20.172a197.631,197.631,0,0,0,4.672-39.78A154.317,154.317,0,0,0,1385.2,74.05l.738-.288c1.274,2.53,2.718,4.991,3.792,7.6,3.788,9.217,5.6,18.939,6.65,28.775.943,8.863,1.4,17.779,2.085,26.67.067.868.254,1.728.385,2.591Z" transform="translate(860.337 -600.463)" fill="#fff"/>
      <path id="Path_2302" data-name="Path 2302" d="M1398.847,192.954c-.959.055-1.917.159-2.876.159q-120.493.011-240.986.007h-3.158v-2.761c0-10.132-.44-20.288.123-30.388.567-10.167,1.922-20.308,3.309-30.409,1.848-13.459,4.534-26.764,9.143-39.6,2.122-5.906,4.631-11.641,8.673-16.562a16.794,16.794,0,0,1,3.346-3.493c-10.378,28.145-17.288,56.51-11.97,86.649.277-2.9.591-5.792.824-8.694,1.138-14.189,2.766-28.312,6.405-42.108a104.223,104.223,0,0,1,3.959-10.823,4.059,4.059,0,0,1,1.736-1.9c-.706,4.914-1.513,9.816-2.1,14.744-1.554,13.1-3,26.22-1.238,39.409.406,3.035,1.531,5.975,2.475,9.523,1.35-13.854,2.227-27.01,4.015-40.041,1.8-13.129,4.868-26.013,12.582-37.823-1.287,9.2-2.851,17.827-3.608,26.521-.758,8.711-.991,17.5-.936,26.243a72.552,72.552,0,0,0,4.73,25.736l.709-.02c1.942-21.008,3.884-42.016,5.786-62.593.656,4.161,1.449,8.876,2.13,13.607.71,4.929,1.406,9.864,1.935,14.815.521,4.873.981,9.763,1.18,14.658s.044,9.786.382,14.685c4.235-31.14,8.258-62.276,7.334-93.792,2.1,7.56,3.374,33.152,4.021,78.629,1.177-9.565,2.516-19.1,6.25-28.076a57.9,57.9,0,0,1,2.729-5.36,25.122,25.122,0,0,1,1.6-2.276c-.98,6.814-2.105,13.363-2.828,19.957-1.026,9.357-1.672,18.758.22,28.09a45.412,45.412,0,0,0,2.729,8.225c6.589-24.37,11.206-48.9,8.309-74.326,2.433,2.894,5.055,15.369,6.267,33.357.772,11.448.653,22.957.9,33.256,1.539-12.5,2.1-26.4,6.6-39.714l1.182,43.947.646.041c.417-3.453.848-6.906,1.247-10.362,2.016-17.486,4.434-34.909,9.3-51.873a95.447,95.447,0,0,1,4.5-11.125,6.729,6.729,0,0,1,1.892-2.215c-3.094,26.181-7.245,52.267-3.387,78.733,7.552-16.35,15.359-32.582,16.946-50.949,5.811,14.672,6.774,30.034,6.774,45.569,5.462-19.7,7.435-39.431.51-59.289,8.083,10.014,10.212,21.936,11.187,34.324,3.3-20.228,5.378-40.782,15.137-59.327-6.08,27.36-11.054,54.786-7.744,83.184,5.828-5.331,11.237-27.928,9.094-38.55a28.894,28.894,0,0,1,4.642,12.394,110.83,110.83,0,0,1,1.235,13.177c.2,4.276.043,8.569.278,12.866,7.4-18.3,7.521-37.076,3.636-56.161,5.3,12.446,7.39,25.537,8.088,38.96,2.014-15.441,3.276-30.971,8.2-45.85.052,23.306-1.329,46.645,3.446,69.7a153.016,153.016,0,0,0,8.33-59.018c.576,2.693,1.256,5.369,1.7,8.083.464,2.85.779,5.731,1.016,8.609.231,2.8.362,5.62.387,8.431.025,2.893-.079,5.79-.224,8.68-.145,2.873-.412,5.741-.543,8.618,4.643-21.017,7.84-42.526,21.168-60.458-9.052,24.959-16.864,50.08-13.521,77.276,11.266-8.122,19.273-23.187,15.085-43.8,1.977,2.642,4.081,10.351,4.627,19.465.4,6.7.079,13.436.222,20.172a197.631,197.631,0,0,0,4.672-39.78A154.317,154.317,0,0,0,1385.2,74.05l.738-.288c1.274,2.53,2.718,4.991,3.792,7.6,3.788,9.217,5.6,18.939,6.65,28.775.943,8.863,1.4,17.779,2.085,26.67.067.868.254,1.728.385,2.591Z" transform="translate(1810.22 -600.463)" fill="#fff"/>
      <path id="Path_2298" data-name="Path 2298" d="M1398.847,192.954c-.959.055-1.917.159-2.876.159q-120.493.011-240.986.007h-3.158v-2.761c0-10.132-.44-20.288.123-30.388.567-10.167,1.922-20.308,3.309-30.409,1.848-13.459,4.534-26.764,9.143-39.6,2.122-5.906,4.631-11.641,8.673-16.562a16.794,16.794,0,0,1,3.346-3.493c-10.378,28.145-17.288,56.51-11.97,86.649.277-2.9.591-5.792.824-8.694,1.138-14.189,2.766-28.312,6.405-42.108a104.223,104.223,0,0,1,3.959-10.823,4.059,4.059,0,0,1,1.736-1.9c-.706,4.914-1.513,9.816-2.1,14.744-1.554,13.1-3,26.22-1.238,39.409.406,3.035,1.531,5.975,2.475,9.523,1.35-13.854,2.227-27.01,4.015-40.041,1.8-13.129,4.868-26.013,12.582-37.823-1.287,9.2-2.851,17.827-3.608,26.521-.758,8.711-.991,17.5-.936,26.243a72.552,72.552,0,0,0,4.73,25.736l.709-.02c1.942-21.008,3.884-42.016,5.786-62.593.656,4.161,1.449,8.876,2.13,13.607.71,4.929,1.406,9.864,1.935,14.815.521,4.873.981,9.763,1.18,14.658s.044,9.786.382,14.685c4.235-31.14,8.258-62.276,7.334-93.792,2.1,7.56,3.374,33.152,4.021,78.629,1.177-9.565,2.516-19.1,6.25-28.076a57.9,57.9,0,0,1,2.729-5.36,25.122,25.122,0,0,1,1.6-2.276c-.98,6.814-2.105,13.363-2.828,19.957-1.026,9.357-1.672,18.758.22,28.09a45.412,45.412,0,0,0,2.729,8.225c6.589-24.37,11.206-48.9,8.309-74.326,2.433,2.894,5.055,15.369,6.267,33.357.772,11.448.653,22.957.9,33.256,1.539-12.5,2.1-26.4,6.6-39.714l1.182,43.947.646.041c.417-3.453.848-6.906,1.247-10.362,2.016-17.486,4.434-34.909,9.3-51.873a95.447,95.447,0,0,1,4.5-11.125,6.729,6.729,0,0,1,1.892-2.215c-3.094,26.181-7.245,52.267-3.387,78.733,7.552-16.35,15.359-32.582,16.946-50.949,5.811,14.672,6.774,30.034,6.774,45.569,5.462-19.7,7.435-39.431.51-59.289,8.083,10.014,10.212,21.936,11.187,34.324,3.3-20.228,5.378-40.782,15.137-59.327-6.08,27.36-11.054,54.786-7.744,83.184,5.828-5.331,11.237-27.928,9.094-38.55a28.894,28.894,0,0,1,4.642,12.394,110.83,110.83,0,0,1,1.235,13.177c.2,4.276.043,8.569.278,12.866,7.4-18.3,7.521-37.076,3.636-56.161,5.3,12.446,7.39,25.537,8.088,38.96,2.014-15.441,3.276-30.971,8.2-45.85.052,23.306-1.329,46.645,3.446,69.7a153.016,153.016,0,0,0,8.33-59.018c.576,2.693,1.256,5.369,1.7,8.083.464,2.85.779,5.731,1.016,8.609.231,2.8.362,5.62.387,8.431.025,2.893-.079,5.79-.224,8.68-.145,2.873-.412,5.741-.543,8.618,4.643-21.017,7.84-42.526,21.168-60.458-9.052,24.959-16.864,50.08-13.521,77.276,11.266-8.122,19.273-23.187,15.085-43.8,1.977,2.642,4.081,10.351,4.627,19.465.4,6.7.079,13.436.222,20.172a197.631,197.631,0,0,0,4.672-39.78A154.317,154.317,0,0,0,1385.2,74.05l.738-.288c1.274,2.53,2.718,4.991,3.792,7.6,3.788,9.217,5.6,18.939,6.65,28.775.943,8.863,1.4,17.779,2.085,26.67.067.868.254,1.728.385,2.591Z" transform="translate(1339.853 -600.463)" fill="#fff"/>
      <path id="Path_2299" data-name="Path 2299" d="M1398.847,192.954c-.959.055-1.917.159-2.876.159q-120.493.011-240.986.007h-3.158v-2.761c0-10.132-.44-20.288.123-30.388.567-10.167,1.922-20.308,3.309-30.409,1.848-13.459,4.534-26.764,9.143-39.6,2.122-5.906,4.631-11.641,8.673-16.562a16.794,16.794,0,0,1,3.346-3.493c-10.378,28.145-17.288,56.51-11.97,86.649.277-2.9.591-5.792.824-8.694,1.138-14.189,2.766-28.312,6.405-42.108a104.223,104.223,0,0,1,3.959-10.823,4.059,4.059,0,0,1,1.736-1.9c-.706,4.914-1.513,9.816-2.1,14.744-1.554,13.1-3,26.22-1.238,39.409.406,3.035,1.531,5.975,2.475,9.523,1.35-13.854,2.227-27.01,4.015-40.041,1.8-13.129,4.868-26.013,12.582-37.823-1.287,9.2-2.851,17.827-3.608,26.521-.758,8.711-.991,17.5-.936,26.243a72.552,72.552,0,0,0,4.73,25.736l.709-.02c1.942-21.008,3.884-42.016,5.786-62.593.656,4.161,1.449,8.876,2.13,13.607.71,4.929,1.406,9.864,1.935,14.815.521,4.873.981,9.763,1.18,14.658s.044,9.786.382,14.685c4.235-31.14,8.258-62.276,7.334-93.792,2.1,7.56,3.374,33.152,4.021,78.629,1.177-9.565,2.516-19.1,6.25-28.076a57.9,57.9,0,0,1,2.729-5.36,25.122,25.122,0,0,1,1.6-2.276c-.98,6.814-2.105,13.363-2.828,19.957-1.026,9.357-1.672,18.758.22,28.09a45.412,45.412,0,0,0,2.729,8.225c6.589-24.37,11.206-48.9,8.309-74.326,2.433,2.894,5.055,15.369,6.267,33.357.772,11.448.653,22.957.9,33.256,1.539-12.5,2.1-26.4,6.6-39.714l1.182,43.947.646.041c.417-3.453.848-6.906,1.247-10.362,2.016-17.486,4.434-34.909,9.3-51.873a95.447,95.447,0,0,1,4.5-11.125,6.729,6.729,0,0,1,1.892-2.215c-3.094,26.181-7.245,52.267-3.387,78.733,7.552-16.35,15.359-32.582,16.946-50.949,5.811,14.672,6.774,30.034,6.774,45.569,5.462-19.7,7.435-39.431.51-59.289,8.083,10.014,10.212,21.936,11.187,34.324,3.3-20.228,5.378-40.782,15.137-59.327-6.08,27.36-11.054,54.786-7.744,83.184,5.828-5.331,11.237-27.928,9.094-38.55a28.894,28.894,0,0,1,4.642,12.394,110.83,110.83,0,0,1,1.235,13.177c.2,4.276.043,8.569.278,12.866,7.4-18.3,7.521-37.076,3.636-56.161,5.3,12.446,7.39,25.537,8.088,38.96,2.014-15.441,3.276-30.971,8.2-45.85.052,23.306-1.329,46.645,3.446,69.7a153.016,153.016,0,0,0,8.33-59.018c.576,2.693,1.256,5.369,1.7,8.083.464,2.85.779,5.731,1.016,8.609.231,2.8.362,5.62.387,8.431.025,2.893-.079,5.79-.224,8.68-.145,2.873-.412,5.741-.543,8.618,4.643-21.017,7.84-42.526,21.168-60.458-9.052,24.959-16.864,50.08-13.521,77.276,11.266-8.122,19.273-23.187,15.085-43.8,1.977,2.642,4.081,10.351,4.627,19.465.4,6.7.079,13.436.222,20.172a197.631,197.631,0,0,0,4.672-39.78A154.317,154.317,0,0,0,1385.2,74.05l.738-.288c1.274,2.53,2.718,4.991,3.792,7.6,3.788,9.217,5.6,18.939,6.65,28.775.943,8.863,1.4,17.779,2.085,26.67.067.868.254,1.728.385,2.591Z" transform="translate(2289.737 -600.463)" fill="#fff"/>
      <path id="Path_2296" data-name="Path 2296" d="M1398.847,192.954c-.959.055-1.917.159-2.876.159q-120.493.011-240.986.007h-3.158v-2.761c0-10.132-.44-20.288.123-30.388.567-10.167,1.922-20.308,3.309-30.409,1.848-13.459,4.534-26.764,9.143-39.6,2.122-5.906,4.631-11.641,8.673-16.562a16.794,16.794,0,0,1,3.346-3.493c-10.378,28.145-17.288,56.51-11.97,86.649.277-2.9.591-5.792.824-8.694,1.138-14.189,2.766-28.312,6.405-42.108a104.223,104.223,0,0,1,3.959-10.823,4.059,4.059,0,0,1,1.736-1.9c-.706,4.914-1.513,9.816-2.1,14.744-1.554,13.1-3,26.22-1.238,39.409.406,3.035,1.531,5.975,2.475,9.523,1.35-13.854,2.227-27.01,4.015-40.041,1.8-13.129,4.868-26.013,12.582-37.823-1.287,9.2-2.851,17.827-3.608,26.521-.758,8.711-.991,17.5-.936,26.243a72.552,72.552,0,0,0,4.73,25.736l.709-.02c1.942-21.008,3.884-42.016,5.786-62.593.656,4.161,1.449,8.876,2.13,13.607.71,4.929,1.406,9.864,1.935,14.815.521,4.873.981,9.763,1.18,14.658s.044,9.786.382,14.685c4.235-31.14,8.258-62.276,7.334-93.792,2.1,7.56,3.374,33.152,4.021,78.629,1.177-9.565,2.516-19.1,6.25-28.076a57.9,57.9,0,0,1,2.729-5.36,25.122,25.122,0,0,1,1.6-2.276c-.98,6.814-2.105,13.363-2.828,19.957-1.026,9.357-1.672,18.758.22,28.09a45.412,45.412,0,0,0,2.729,8.225c6.589-24.37,11.206-48.9,8.309-74.326,2.433,2.894,5.055,15.369,6.267,33.357.772,11.448.653,22.957.9,33.256,1.539-12.5,2.1-26.4,6.6-39.714l1.182,43.947.646.041c.417-3.453.848-6.906,1.247-10.362,2.016-17.486,4.434-34.909,9.3-51.873a95.447,95.447,0,0,1,4.5-11.125,6.729,6.729,0,0,1,1.892-2.215c-3.094,26.181-7.245,52.267-3.387,78.733,7.552-16.35,15.359-32.582,16.946-50.949,5.811,14.672,6.774,30.034,6.774,45.569,5.462-19.7,7.435-39.431.51-59.289,8.083,10.014,10.212,21.936,11.187,34.324,3.3-20.228,5.378-40.782,15.137-59.327-6.08,27.36-11.054,54.786-7.744,83.184,5.828-5.331,11.237-27.928,9.094-38.55a28.894,28.894,0,0,1,4.642,12.394,110.83,110.83,0,0,1,1.235,13.177c.2,4.276.043,8.569.278,12.866,7.4-18.3,7.521-37.076,3.636-56.161,5.3,12.446,7.39,25.537,8.088,38.96,2.014-15.441,3.276-30.971,8.2-45.85.052,23.306-1.329,46.645,3.446,69.7a153.016,153.016,0,0,0,8.33-59.018c.576,2.693,1.256,5.369,1.7,8.083.464,2.85.779,5.731,1.016,8.609.231,2.8.362,5.62.387,8.431.025,2.893-.079,5.79-.224,8.68-.145,2.873-.412,5.741-.543,8.618,4.643-21.017,7.84-42.526,21.168-60.458-9.052,24.959-16.864,50.08-13.521,77.276,11.266-8.122,19.273-23.187,15.085-43.8,1.977,2.642,4.081,10.351,4.627,19.465.4,6.7.079,13.436.222,20.172a197.631,197.631,0,0,0,4.672-39.78A154.317,154.317,0,0,0,1385.2,74.05l.738-.288c1.274,2.53,2.718,4.991,3.792,7.6,3.788,9.217,5.6,18.939,6.65,28.775.943,8.863,1.4,17.779,2.085,26.67.067.868.254,1.728.385,2.591Z" transform="translate(1103.753 -600.463)" fill="#fff"/>
      <path id="Path_2301" data-name="Path 2301" d="M1398.847,192.954c-.959.055-1.917.159-2.876.159q-120.493.011-240.986.007h-3.158v-2.761c0-10.132-.44-20.288.123-30.388.567-10.167,1.922-20.308,3.309-30.409,1.848-13.459,4.534-26.764,9.143-39.6,2.122-5.906,4.631-11.641,8.673-16.562a16.794,16.794,0,0,1,3.346-3.493c-10.378,28.145-17.288,56.51-11.97,86.649.277-2.9.591-5.792.824-8.694,1.138-14.189,2.766-28.312,6.405-42.108a104.223,104.223,0,0,1,3.959-10.823,4.059,4.059,0,0,1,1.736-1.9c-.706,4.914-1.513,9.816-2.1,14.744-1.554,13.1-3,26.22-1.238,39.409.406,3.035,1.531,5.975,2.475,9.523,1.35-13.854,2.227-27.01,4.015-40.041,1.8-13.129,4.868-26.013,12.582-37.823-1.287,9.2-2.851,17.827-3.608,26.521-.758,8.711-.991,17.5-.936,26.243a72.552,72.552,0,0,0,4.73,25.736l.709-.02c1.942-21.008,3.884-42.016,5.786-62.593.656,4.161,1.449,8.876,2.13,13.607.71,4.929,1.406,9.864,1.935,14.815.521,4.873.981,9.763,1.18,14.658s.044,9.786.382,14.685c4.235-31.14,8.258-62.276,7.334-93.792,2.1,7.56,3.374,33.152,4.021,78.629,1.177-9.565,2.516-19.1,6.25-28.076a57.9,57.9,0,0,1,2.729-5.36,25.122,25.122,0,0,1,1.6-2.276c-.98,6.814-2.105,13.363-2.828,19.957-1.026,9.357-1.672,18.758.22,28.09a45.412,45.412,0,0,0,2.729,8.225c6.589-24.37,11.206-48.9,8.309-74.326,2.433,2.894,5.055,15.369,6.267,33.357.772,11.448.653,22.957.9,33.256,1.539-12.5,2.1-26.4,6.6-39.714l1.182,43.947.646.041c.417-3.453.848-6.906,1.247-10.362,2.016-17.486,4.434-34.909,9.3-51.873a95.447,95.447,0,0,1,4.5-11.125,6.729,6.729,0,0,1,1.892-2.215c-3.094,26.181-7.245,52.267-3.387,78.733,7.552-16.35,15.359-32.582,16.946-50.949,5.811,14.672,6.774,30.034,6.774,45.569,5.462-19.7,7.435-39.431.51-59.289,8.083,10.014,10.212,21.936,11.187,34.324,3.3-20.228,5.378-40.782,15.137-59.327-6.08,27.36-11.054,54.786-7.744,83.184,5.828-5.331,11.237-27.928,9.094-38.55a28.894,28.894,0,0,1,4.642,12.394,110.83,110.83,0,0,1,1.235,13.177c.2,4.276.043,8.569.278,12.866,7.4-18.3,7.521-37.076,3.636-56.161,5.3,12.446,7.39,25.537,8.088,38.96,2.014-15.441,3.276-30.971,8.2-45.85.052,23.306-1.329,46.645,3.446,69.7a153.016,153.016,0,0,0,8.33-59.018c.576,2.693,1.256,5.369,1.7,8.083.464,2.85.779,5.731,1.016,8.609.231,2.8.362,5.62.387,8.431.025,2.893-.079,5.79-.224,8.68-.145,2.873-.412,5.741-.543,8.618,4.643-21.017,7.84-42.526,21.168-60.458-9.052,24.959-16.864,50.08-13.521,77.276,11.266-8.122,19.273-23.187,15.085-43.8,1.977,2.642,4.081,10.351,4.627,19.465.4,6.7.079,13.436.222,20.172a197.631,197.631,0,0,0,4.672-39.78A154.317,154.317,0,0,0,1385.2,74.05l.738-.288c1.274,2.53,2.718,4.991,3.792,7.6,3.788,9.217,5.6,18.939,6.65,28.775.943,8.863,1.4,17.779,2.085,26.67.067.868.254,1.728.385,2.591Z" transform="translate(2053.637 -600.463)" fill="#fff"/>
      <path id="Path_2297" data-name="Path 2297" d="M1398.847,192.954c-.959.055-1.917.159-2.876.159q-120.493.011-240.986.007h-3.158v-2.761c0-10.132-.44-20.288.123-30.388.567-10.167,1.922-20.308,3.309-30.409,1.848-13.459,4.534-26.764,9.143-39.6,2.122-5.906,4.631-11.641,8.673-16.562a16.794,16.794,0,0,1,3.346-3.493c-10.378,28.145-17.288,56.51-11.97,86.649.277-2.9.591-5.792.824-8.694,1.138-14.189,2.766-28.312,6.405-42.108a104.223,104.223,0,0,1,3.959-10.823,4.059,4.059,0,0,1,1.736-1.9c-.706,4.914-1.513,9.816-2.1,14.744-1.554,13.1-3,26.22-1.238,39.409.406,3.035,1.531,5.975,2.475,9.523,1.35-13.854,2.227-27.01,4.015-40.041,1.8-13.129,4.868-26.013,12.582-37.823-1.287,9.2-2.851,17.827-3.608,26.521-.758,8.711-.991,17.5-.936,26.243a72.552,72.552,0,0,0,4.73,25.736l.709-.02c1.942-21.008,3.884-42.016,5.786-62.593.656,4.161,1.449,8.876,2.13,13.607.71,4.929,1.406,9.864,1.935,14.815.521,4.873.981,9.763,1.18,14.658s.044,9.786.382,14.685c4.235-31.14,8.258-62.276,7.334-93.792,2.1,7.56,3.374,33.152,4.021,78.629,1.177-9.565,2.516-19.1,6.25-28.076a57.9,57.9,0,0,1,2.729-5.36,25.122,25.122,0,0,1,1.6-2.276c-.98,6.814-2.105,13.363-2.828,19.957-1.026,9.357-1.672,18.758.22,28.09a45.412,45.412,0,0,0,2.729,8.225c6.589-24.37,11.206-48.9,8.309-74.326,2.433,2.894,5.055,15.369,6.267,33.357.772,11.448.653,22.957.9,33.256,1.539-12.5,2.1-26.4,6.6-39.714l1.182,43.947.646.041c.417-3.453.848-6.906,1.247-10.362,2.016-17.486,4.434-34.909,9.3-51.873a95.447,95.447,0,0,1,4.5-11.125,6.729,6.729,0,0,1,1.892-2.215c-3.094,26.181-7.245,52.267-3.387,78.733,7.552-16.35,15.359-32.582,16.946-50.949,5.811,14.672,6.774,30.034,6.774,45.569,5.462-19.7,7.435-39.431.51-59.289,8.083,10.014,10.212,21.936,11.187,34.324,3.3-20.228,5.378-40.782,15.137-59.327-6.08,27.36-11.054,54.786-7.744,83.184,5.828-5.331,11.237-27.928,9.094-38.55a28.894,28.894,0,0,1,4.642,12.394,110.83,110.83,0,0,1,1.235,13.177c.2,4.276.043,8.569.278,12.866,7.4-18.3,7.521-37.076,3.636-56.161,5.3,12.446,7.39,25.537,8.088,38.96,2.014-15.441,3.276-30.971,8.2-45.85.052,23.306-1.329,46.645,3.446,69.7a153.016,153.016,0,0,0,8.33-59.018c.576,2.693,1.256,5.369,1.7,8.083.464,2.85.779,5.731,1.016,8.609.231,2.8.362,5.62.387,8.431.025,2.893-.079,5.79-.224,8.68-.145,2.873-.412,5.741-.543,8.618,4.643-21.017,7.84-42.526,21.168-60.458-9.052,24.959-16.864,50.08-13.521,77.276,11.266-8.122,19.273-23.187,15.085-43.8,1.977,2.642,4.081,10.351,4.627,19.465.4,6.7.079,13.436.222,20.172a197.631,197.631,0,0,0,4.672-39.78A154.317,154.317,0,0,0,1385.2,74.05l.738-.288c1.274,2.53,2.718,4.991,3.792,7.6,3.788,9.217,5.6,18.939,6.65,28.775.943,8.863,1.4,17.779,2.085,26.67.067.868.254,1.728.385,2.591Z" transform="translate(1583.27 -600.463)" fill="#fff"/>
      <path id="Path_2300" data-name="Path 2300" d="M1398.847,192.954c-.959.055-1.917.159-2.876.159q-120.493.011-240.986.007h-3.158v-2.761c0-10.132-.44-20.288.123-30.388.567-10.167,1.922-20.308,3.309-30.409,1.848-13.459,4.534-26.764,9.143-39.6,2.122-5.906,4.631-11.641,8.673-16.562a16.794,16.794,0,0,1,3.346-3.493c-10.378,28.145-17.288,56.51-11.97,86.649.277-2.9.591-5.792.824-8.694,1.138-14.189,2.766-28.312,6.405-42.108a104.223,104.223,0,0,1,3.959-10.823,4.059,4.059,0,0,1,1.736-1.9c-.706,4.914-1.513,9.816-2.1,14.744-1.554,13.1-3,26.22-1.238,39.409.406,3.035,1.531,5.975,2.475,9.523,1.35-13.854,2.227-27.01,4.015-40.041,1.8-13.129,4.868-26.013,12.582-37.823-1.287,9.2-2.851,17.827-3.608,26.521-.758,8.711-.991,17.5-.936,26.243a72.552,72.552,0,0,0,4.73,25.736l.709-.02c1.942-21.008,3.884-42.016,5.786-62.593.656,4.161,1.449,8.876,2.13,13.607.71,4.929,1.406,9.864,1.935,14.815.521,4.873.981,9.763,1.18,14.658s.044,9.786.382,14.685c4.235-31.14,8.258-62.276,7.334-93.792,2.1,7.56,3.374,33.152,4.021,78.629,1.177-9.565,2.516-19.1,6.25-28.076a57.9,57.9,0,0,1,2.729-5.36,25.122,25.122,0,0,1,1.6-2.276c-.98,6.814-2.105,13.363-2.828,19.957-1.026,9.357-1.672,18.758.22,28.09a45.412,45.412,0,0,0,2.729,8.225c6.589-24.37,11.206-48.9,8.309-74.326,2.433,2.894,5.055,15.369,6.267,33.357.772,11.448.653,22.957.9,33.256,1.539-12.5,2.1-26.4,6.6-39.714l1.182,43.947.646.041c.417-3.453.848-6.906,1.247-10.362,2.016-17.486,4.434-34.909,9.3-51.873a95.447,95.447,0,0,1,4.5-11.125,6.729,6.729,0,0,1,1.892-2.215c-3.094,26.181-7.245,52.267-3.387,78.733,7.552-16.35,15.359-32.582,16.946-50.949,5.811,14.672,6.774,30.034,6.774,45.569,5.462-19.7,7.435-39.431.51-59.289,8.083,10.014,10.212,21.936,11.187,34.324,3.3-20.228,5.378-40.782,15.137-59.327-6.08,27.36-11.054,54.786-7.744,83.184,5.828-5.331,11.237-27.928,9.094-38.55a28.894,28.894,0,0,1,4.642,12.394,110.83,110.83,0,0,1,1.235,13.177c.2,4.276.043,8.569.278,12.866,7.4-18.3,7.521-37.076,3.636-56.161,5.3,12.446,7.39,25.537,8.088,38.96,2.014-15.441,3.276-30.971,8.2-45.85.052,23.306-1.329,46.645,3.446,69.7a153.016,153.016,0,0,0,8.33-59.018c.576,2.693,1.256,5.369,1.7,8.083.464,2.85.779,5.731,1.016,8.609.231,2.8.362,5.62.387,8.431.025,2.893-.079,5.79-.224,8.68-.145,2.873-.412,5.741-.543,8.618,4.643-21.017,7.84-42.526,21.168-60.458-9.052,24.959-16.864,50.08-13.521,77.276,11.266-8.122,19.273-23.187,15.085-43.8,1.977,2.642,4.081,10.351,4.627,19.465.4,6.7.079,13.436.222,20.172a197.631,197.631,0,0,0,4.672-39.78A154.317,154.317,0,0,0,1385.2,74.05l.738-.288c1.274,2.53,2.718,4.991,3.792,7.6,3.788,9.217,5.6,18.939,6.65,28.775.943,8.863,1.4,17.779,2.085,26.67.067.868.254,1.728.385,2.591Z" transform="translate(2533.153 -600.463)" fill="#fff"/>
    </g>
  </g>
</svg>
