<svg id="Group_1203" data-name="Group 1203" xmlns="http://www.w3.org/2000/svg" width="96.213" height="128.167" viewBox="0 0 96.213 128.167">
  <path id="Path_2133" data-name="Path 2133" d="M773.749,626.751c-5.62-9.5-16.738-9.938-16.738-9.938s-10.834-1.385-17.784,13.076c-6.478,13.48-15.418,26.495-1.439,29.65l2.525-7.859,1.564,8.444a54.7,54.7,0,0,0,5.981.1c14.97-.483,29.227.141,28.768-5.231C776.015,647.855,779.156,635.888,773.749,626.751Z" transform="translate(-708.559 -616.777)" fill="#2f2e41"/>
  <path id="Path_2134" data-name="Path 2134" d="M740.556,782.459a22.157,22.157,0,0,1-.717,3.086c-.352.989-.895,1.9-1.216,2.9-1.025,3.184.4,6.735,2.665,9.193a15,15,0,0,0,7.314,4.343,29.839,29.839,0,0,0,6.286.66c5.842.2,11.834.375,17.37-1.5a30.162,30.162,0,0,0,5.046-2.292,3.777,3.777,0,0,0,1.309-1.031,3.6,3.6,0,0,0,.473-2.115c-.013-2.477-.515-4.941-.4-7.414a29.36,29.36,0,0,0,.2-4.105,7.573,7.573,0,0,0-5.788-6.524,15.724,15.724,0,0,0-4.8,0,122.352,122.352,0,0,1-12.487.558c-4.26-.027-8.493-.677-12.731-.745-1.253-.02-1.228.366-1.627,1.579A29.563,29.563,0,0,0,740.556,782.459Z" transform="translate(-712.125 -689.328)" fill="#2f2e41"/>
  <path id="Path_2135" data-name="Path 2135" d="M760.274,670.876a7.437,7.437,0,0,1-1.07,3.064c-.741,1.013-1.949,1.593-2.747,2.562-1.2,1.46-1.269,3.514-1.274,5.4,0,1.741.031,3.6,1,5.043a8.811,8.811,0,0,0,2.526,2.227c3.641,2.453,7.575,4.951,11.964,5.032a6.361,6.361,0,0,0,4.966-1.806,7.454,7.454,0,0,0,1.2-2.145,28.489,28.489,0,0,0,2.016-8.671,10.184,10.184,0,0,0-.384-4.165,38.475,38.475,0,0,0-2.324-4.12,9.17,9.17,0,0,1-.883-5.427.586.586,0,0,0-.031-.393.573.573,0,0,0-.472-.191l-8.7-.627a18.9,18.9,0,0,1-2.417-.277c-.469-.1-1.708-.762-2.156-.584C760.661,666.129,760.444,669.987,760.274,670.876Z" transform="translate(-719.755 -638.897)" fill="#ffb8b8"/>
  <path id="Path_2136" data-name="Path 2136" d="M760.274,670.876a7.437,7.437,0,0,1-1.07,3.064c-.741,1.013-1.949,1.593-2.747,2.562-1.2,1.46-1.269,3.514-1.274,5.4,0,1.741.031,3.6,1,5.043a8.811,8.811,0,0,0,2.526,2.227c3.641,2.453,7.575,4.951,11.964,5.032a6.361,6.361,0,0,0,4.966-1.806,7.454,7.454,0,0,0,1.2-2.145,28.489,28.489,0,0,0,2.016-8.671,10.184,10.184,0,0,0-.384-4.165,38.475,38.475,0,0,0-2.324-4.12,9.17,9.17,0,0,1-.883-5.427.586.586,0,0,0-.031-.393.573.573,0,0,0-.472-.191l-8.7-.627a18.9,18.9,0,0,1-2.417-.277c-.469-.1-1.708-.762-2.156-.584C760.661,666.129,760.444,669.987,760.274,670.876Z" transform="translate(-719.755 -638.897)" opacity="0.1"/>
  <circle id="Ellipse_24" data-name="Ellipse 24" cx="12.769" cy="12.769" r="12.769" transform="translate(36.073 7.607)" fill="#ffb8b8"/>
  <path id="Path_2137" data-name="Path 2137" d="M763.931,699.049a7.832,7.832,0,0,0,2.243,1.792,7.046,7.046,0,0,0,2.8.533c2.3.065,4.8-.357,6.4-2.012,2.064-2.133,2-5.574,3.614-8.062a1.8,1.8,0,0,1,.521-.57,1.689,1.689,0,0,1,.887-.2c2.043-.019,3.823,1.306,5.43,2.569a7.153,7.153,0,0,1,1.911,1.947,6.6,6.6,0,0,1,.644,1.974,86.714,86.714,0,0,1,1.311,11.834c.141,2.19.283,4.381.273,6.575-.035,7.228-1.715,14.336-3.385,21.369a3.339,3.339,0,0,1-1.334,2.353,3.29,3.29,0,0,1-1.164.284,142.459,142.459,0,0,1-14.4,1.2q-2.82.043-5.638-.136a3.039,3.039,0,0,1-.95-.166,2.678,2.678,0,0,1-1.035-.879c-2.606-3.284-2.76-7.824-2.743-12.016q.061-15.374,1.1-30.724a3.38,3.38,0,0,0-.539-2.535A31.732,31.732,0,0,0,763.931,699.049Z" transform="translate(-721.621 -650.073)" fill="#e8554e" opacity="0.36"/>
  <path id="Path_2138" data-name="Path 2138" d="M746.576,678.247c-.431.781-3.611,2.719-4.225,3.366-3.43,3.615-9.69,3.48-12.826,7.352a12.065,12.065,0,0,0-2.1,4.776c-.6,2.407-.915,5.032.084,7.3.961,2.184,2.985,3.693,4.359,5.644a21.739,21.739,0,0,1,2.837,7.28,16.759,16.759,0,0,1,.777,5.719c-.213,2.189-1.272,4.193-1.9,6.3s-.733,4.62.713,6.277a7.161,7.161,0,0,0,4.322,1.971,49.652,49.652,0,0,0,6.16.536c1.821.08,3.828.1,5.227-1.071a5.255,5.255,0,0,0,1.647-3.852,24.866,24.866,0,0,0-.424-4.287c-.194-1.478-.269-2.969-.331-4.459q-.42-10.025-.115-20.062a17.078,17.078,0,0,0-.2-4.163,22.823,22.823,0,0,0-2.165-5.035,19.053,19.053,0,0,1-2.112-10.064C746.549,678.2,748.111,675.469,746.576,678.247Z" transform="translate(-706.971 -644.014)" fill="#e8554e"/>
  <path id="Path_2139" data-name="Path 2139" d="M791.856,677.493c.657.675,2.889.9,3.725,1.332a13.045,13.045,0,0,0,2.448.848,31.784,31.784,0,0,1,8.6,3.948,5.217,5.217,0,0,1,1.438,1.243,5.693,5.693,0,0,1,.8,2.247,19.122,19.122,0,0,1-.685,12.555l-2.448,7.827c-1.828,5.842-3.667,11.742-4.181,17.842a41.967,41.967,0,0,0,.377,10.134,1.2,1.2,0,0,1-.123.982.968.968,0,0,1-.6.276,5.88,5.88,0,0,1-3.4-.951,37.6,37.6,0,0,0-10.366-3.392,24.1,24.1,0,0,0,3.22-6.637,40.2,40.2,0,0,0,.973-4.565l1.139-6.587a64.74,64.74,0,0,0,.977-7.284,9.118,9.118,0,0,0-.158-2.744,13.315,13.315,0,0,0-1.04-2.475,21.143,21.143,0,0,1-2.019-12.628c.323-1.868.951-3.739.689-5.616-.252-1.805.01-3.208-.453-4.995C788.867,671.516,790.62,676.223,791.856,677.493Z" transform="translate(-734.319 -642.989)" fill="#e8554e"/>
  <path id="Path_2140" data-name="Path 2140" d="M729.152,705.69c-.856,1.776-2.286,3.288-2.773,5.2a11.353,11.353,0,0,0-.242,2.717,12.9,12.9,0,0,0,.4,4.085c.272.842.714,1.619,1.032,2.445a8.864,8.864,0,0,1,.581,3.622c-.086,1.71-.667,3.371-.712,5.083-.071,2.692,1.174,5.223,2.389,7.627a5.607,5.607,0,0,1,8.149-2.668,1.671,1.671,0,0,0,.367-1.218q.135-4.685.26-9.371c.132-4.831.257-9.726-.854-14.429a13.615,13.615,0,0,0-2.714-5.886c-.753-.867-3.312-3.152-4.549-2.18-.556.437-.426,1.626-.514,2.228A9.454,9.454,0,0,1,729.152,705.69Z" transform="translate(-706.63 -654.567)" fill="#e8554e"/>
  <path id="Path_2141" data-name="Path 2141" d="M816.043,696.911a13.072,13.072,0,0,1,.437,3.931q.025,4.05-.107,8.1a15.1,15.1,0,0,1-.526,4.1c-.276.869-.7,1.684-.988,2.55-.855,2.6-.388,5.41-.315,8.142a9.249,9.249,0,0,1-.224,2.634c-.451,1.694-1.664,3.062-2.511,4.6a45.213,45.213,0,0,1-2.25,4.451c-.96,1.36-2.623,2.437-4.234,2.019a4.674,4.674,0,0,1-2.688-2.506,12.292,12.292,0,0,1-1.271-7.974c.6-3.316,2.55-6.257,3.252-9.553.964-4.526-.5-9.2-.458-13.824a6.679,6.679,0,0,1,.292-2.143,8.968,8.968,0,0,1,1.891-2.749,34.7,34.7,0,0,0,2.541-3.335c.523-.78,1.234-2.788,2.162-2.955C813.116,692.024,815.529,695.31,816.043,696.911Z" transform="translate(-740.519 -650.904)" fill="#e8554e"/>
  <path id="Path_2142" data-name="Path 2142" d="M702.368,782.581a12.594,12.594,0,0,0-3.506-.373,8.751,8.751,0,0,0-8.124,10.316,14.7,14.7,0,0,0,1.389,3.8,12.684,12.684,0,0,0,3.766,4.979,14.668,14.668,0,0,0,3.324,1.582l9.066,3.415c1.334.5,2.668,1,4.015,1.471a78.534,78.534,0,0,0,20.968,4.168,22.705,22.705,0,0,0,6.51-.33,2.12,2.12,0,0,0,1.333-.72,2.284,2.284,0,0,0,.3-.984l.558-3.905a3.271,3.271,0,0,0-.047-1.646,3.153,3.153,0,0,0-1.507-1.42c-5.96-3.423-12.919-5.312-17.936-10.01-1.181-1.106-2.169-2.859-3.6-3.611-1.627-.852-3.544-1.338-5.226-2.123C709.968,785.469,706.353,783.5,702.368,782.581Z" transform="translate(-690.595 -691.462)" fill="#2f2e41"/>
  <path id="Path_2143" data-name="Path 2143" d="M725.218,791.754c3.2,1,16.733,7.96,19.052,10.389-.311.112-10.857-5.8-11.173-5.893a63.742,63.742,0,0,1-8.5-3c-.549-.254-3.57-1.449-3.433-2.142C721.317,790.33,724.649,791.575,725.218,791.754Z" transform="translate(-704.393 -695.37)" opacity="0.1"/>
  <path id="Path_2144" data-name="Path 2144" d="M790.625,833.279a.753.753,0,0,0,.508-.149.785.785,0,0,0,.159-.585l-.015-5.321a16.354,16.354,0,0,0-4.921-1.187l-7.838-1.048c.18.024-1.226,3.376-1.01,3.823.38.789,3.283,1.488,4.1,1.86C784.458,831.968,787.418,833.391,790.625,833.279Z" transform="translate(-729.824 -710.781)" fill="#ffb8b8"/>
  <path id="Path_2145" data-name="Path 2145" d="M752.633,825.885c-1.48.236-3.132.444-4.09,1.6-1.215,1.461-.7,3.639-.118,5.448a1.767,1.767,0,0,0,2.061,1.474,7.123,7.123,0,0,0,3.965-.509,17.355,17.355,0,0,0,1.54-1.145,9.878,9.878,0,0,1,2.832-1.295,28.639,28.639,0,0,1,5.685-1.172,8.843,8.843,0,0,0,2.239-.395,2.482,2.482,0,0,0,1.577-1.531,3.649,3.649,0,0,0-.828-2.8,11.176,11.176,0,0,0-2.384-2.946c-1.461-1.134-2.183-.264-3.654.462A31,31,0,0,1,752.633,825.885Z" transform="translate(-716.423 -709.459)" fill="#ffb8b8"/>
  <path id="Path_2146" data-name="Path 2146" d="M734.84,828.614l-9.4-2.777a12.443,12.443,0,0,0-3.5-.678,4.2,4.2,0,0,0-3.211,1.3,6.256,6.256,0,0,0-1.119,3.133l-.388,2.372a11.913,11.913,0,0,0-.218,3.642,4.027,4.027,0,0,0,1.867,3c1.3.709,2.894.363,4.345.066a47.3,47.3,0,0,1,8.9-.955,7.148,7.148,0,0,0,3.3-.526,4.118,4.118,0,0,0,2.01-3.282C737.62,831.883,736.945,829.236,734.84,828.614Z" transform="translate(-702.497 -710.855)" fill="#2f2e41"/>
  <path id="Path_2147" data-name="Path 2147" d="M804.9,825.487a22.81,22.81,0,0,0,3.46-1.314,15.4,15.4,0,0,1,5.164-.569,2.5,2.5,0,0,1,2.945,2.815l.786,5.5a8.63,8.63,0,0,1,.064,3.117,2.932,2.932,0,0,1-1.937,2.266c-1.229.319-2.433-.465-3.593-.981-2.9-1.289-6.27-.959-9.294-1.922a2.083,2.083,0,0,1-1.391-.995,2.264,2.264,0,0,1-.108-.951c.052-1.768-.321-4.183.211-5.873C801.682,825.06,803.536,825.487,804.9,825.487Z" transform="translate(-740.401 -710.148)" fill="#2f2e41"/>
  <path id="Path_2148" data-name="Path 2148" d="M812.189,778.453a16.32,16.32,0,0,1,5.748-.393,6.059,6.059,0,0,1,6.083,6.839,16.178,16.178,0,0,1-3.516,10.331,9.374,9.374,0,0,1-2.01,1.935,13.235,13.235,0,0,1-2.615,1.26l-20.3,8.008a131.2,131.2,0,0,1-16.272,5.608,1.268,1.268,0,0,1-1.707-.619,42.069,42.069,0,0,1-4.45-8.14.549.549,0,0,1,.242-.865l14.36-8.251a14.516,14.516,0,0,0,2.923-2.014,7.254,7.254,0,0,0,1.5-2.089c.3-.622.325-2.089.706-2.548s1.646-.486,2.234-.663a20.282,20.282,0,0,0,2.432-.919c3.212-1.437,6.073-3.525,9.152-5.208a23.487,23.487,0,0,1,5.493-2.274Z" transform="translate(-727.809 -689.549)" fill="#2f2e41"/>
  <path id="Path_2149" data-name="Path 2149" d="M810.613,788.8c-2.467,1.853-5.662,3.556-8.107,5.458-.834.649-14.746,8.47-14.943,9.509,2.281.384,16.813-9.782,18.892-10.8A33.587,33.587,0,0,0,812.2,789.1c.465-.362,2.438-1.45,1.1-1.854C812.553,787.021,811.169,788.426,810.613,788.8Z" transform="translate(-734.374 -693.73)" opacity="0.1"/>
  <path id="Path_2150" data-name="Path 2150" d="M563.8,578.991l-10.984-5.753-15.169,2.354-3.138,13.861,7.812-.3,2.182-5.093v5.009l3.6-.139,2.092-8.107,1.308,8.63,12.815-.262Z" transform="translate(-501.097 -569.933)" fill="#2f2e41"/>
  <rect id="Rectangle_1886" data-name="Rectangle 1886" width="23.637" height="28.527" transform="translate(36.617 37.493)" fill="#3f3d56"/>
  <path id="Path_2151" data-name="Path 2151" d="M735.1,746.49a5.707,5.707,0,0,0,2.05,2.04,4.01,4.01,0,0,0,3.525-.094,6.2,6.2,0,0,0,2.544-2.55,12.691,12.691,0,0,0,1.292-7.048c-.149-2.418-.665-4.8-.894-7.211-.166-1.753-.18-3.517-.193-5.278a1.755,1.755,0,0,1,.222-1.067,2.1,2.1,0,0,1,1.177-.588c2.409-.716,4.009-2.974,5.155-5.211a9.031,9.031,0,0,0,1.284-4.8,3.767,3.767,0,0,0-3.019-3.526,4.84,4.84,0,0,0-3.64,1.7,15.609,15.609,0,0,0-4.57,9.134,35.382,35.382,0,0,1-.618,5.1c-.987,3.523-4.076,5.684-5.615,8.854C732.1,739.433,733.038,743.4,735.1,746.49Z" transform="translate(-709.703 -659.381)" fill="#ffb8b8"/>
  <path id="Path_2152" data-name="Path 2152" d="M807.925,724.381a6.658,6.658,0,0,1-3.734,3.588,5.157,5.157,0,0,1-3.246.2,3.6,3.6,0,0,1-2.378-2.127,5.732,5.732,0,0,1-.268-1.6,16.465,16.465,0,0,1,.768-7.044c.333-.856.782-1.668,1.044-2.548a12.786,12.786,0,0,0,.393-3.109l.283-6.483a4.22,4.22,0,0,0-.1-1.406,4.443,4.443,0,0,0-1.964-2.107,12.91,12.91,0,0,1-4.8-5.1,3.576,3.576,0,0,1-.332-2.112,3.511,3.511,0,0,1,2.849-2.4,6.372,6.372,0,0,1,7.639,5.135c.127.732.125,1.479.2,2.218.158,1.567.655,3.078.967,4.622.767,3.8.369,7.735,1.128,11.538C807.008,718.827,809.4,720.9,807.925,724.381Z" transform="translate(-737.078 -650.733)" fill="#ffb8b8"/>
  <circle id="Ellipse_25" data-name="Ellipse 25" cx="3.84" cy="3.84" r="3.84" transform="translate(45.201 43.804)" fill="#6c63ff"/>
</svg>
