<svg xmlns="http://www.w3.org/2000/svg" width="185.567" height="153.669" viewBox="0 0 185.567 153.669">
  <g id="Group_218" data-name="Group 218" transform="translate(0 0)">
    <path id="Path_476" data-name="Path 476" d="M172.343,87.843c-1.019,8.727-3.135,15.735-6.041,21.323-3.866,7.446-10.479,10.446-16.386,13.585a37.368,37.368,0,0,1-5.308,2.308c-10.749,3.731-22.78,2.741-32.231.771a127.062,127.062,0,0,0-20.121-2.544q-2.894-.13-5.793-.13c-2.981,0-56.65,1.023-69.717-25.432-3.226-6.526-5.438-14.5-6.232-24.215C8.267,46.038,20.622,28,36.56,16.2,66.709-6.106,108.034-5.171,137.739,17.726,157.525,32.977,176.051,56.059,172.343,87.843Z" transform="translate(-8.269 0)" fill="#f2f2f2"/>
    <path id="Path_477" data-name="Path 477" d="M57.99,206.234c0,21.836-12.981,29.461-28.995,29.461S0,228.07,0,206.234s28.995-49.616,28.995-49.616S57.99,184.4,57.99,206.234Z" transform="translate(0 -126.344)" fill="#6f9642"/>
    <path id="Path_478" data-name="Path 478" d="M95.9,232.355l.3-18.275,12.358-22.609L96.245,211.212,96.378,203l8.517-16.357-8.482,14.183h0l.24-14.779,9.121-13.023-9.083,10.7.15-27.1L95.9,192.493l.078-1.48L86.7,176.819l9.124,17.035-.864,16.506-.026-.438-10.69-14.937,10.658,16.485-.108,2.064-.019.031.009.17L92.6,255.611h2.929l.351-21.63,10.631-16.444Z" transform="translate(-67.963 -126.344)" fill="#3f3d56"/>
    <path id="Path_479" data-name="Path 479" d="M717.99,213.234c0,21.836-12.981,29.461-28.995,29.461S660,235.07,660,213.234s28.995-49.616,28.995-49.616S717.99,191.4,717.99,213.234Z" transform="translate(-532.422 -131.991)" fill="#6f9642"/>
    <path id="Path_480" data-name="Path 480" d="M755.9,239.355l.3-18.275,12.358-22.609-12.312,19.742.133-8.217,8.517-16.357-8.482,14.183h0l.24-14.779,9.121-13.023-9.083,10.7.15-27.1-.943,35.875.078-1.48L746.7,183.819l9.124,17.035-.864,16.506-.026-.438-10.69-14.937,10.658,16.485-.108,2.064-.019.031.009.17L752.6,262.611h2.929l.351-21.63,10.631-16.444Z" transform="translate(-600.385 -131.991)" fill="#3f3d56"/>
    <path id="Path_481" data-name="Path 481" d="M383.4,97.966c0,23.875-14.193,32.211-31.7,32.211S320,121.84,320,97.966s31.7-54.247,31.7-54.247S383.4,74.091,383.4,97.966Z" transform="translate(-258.144 -35.268)" fill="#6f9642"/>
    <path id="Path_482" data-name="Path 482" d="M424.852,126.524l.325-19.981,13.512-24.719-13.461,21.585.146-8.984,9.312-17.884-9.274,15.506h0l.263-16.158,9.972-14.238-9.931,11.7.164-29.629-1.031,39.223.085-1.618L414.8,65.806l9.976,18.625-.945,18.046L423.8,102,412.111,85.667l11.652,18.023-.118,2.257-.021.034.01.185-2.4,45.785h3.2l.384-23.649,11.624-17.979Z" transform="translate(-332.45 -35.268)" fill="#3f3d56"/>
    <path id="Path_483" data-name="Path 483" d="M206,616.6c0,5.124-33.579,21.07-75,21.07S56,621.729,56,616.6s30.873-16.624,72.294-16.624S206,611.48,206,616.6Z" transform="translate(-45.175 -484.005)" fill="#3f3d56"/>
    <path id="Path_484" data-name="Path 484" d="M206,616.6c0,5.124-33.579,21.07-75,21.07S56,621.729,56,616.6s30.873-16.624,72.294-16.624S206,611.48,206,616.6Z" transform="translate(-45.175 -484.005)" opacity="0.1" style="mix-blend-mode: normal;isolation: isolate"/>
    <path id="Path_485" data-name="Path 485" d="M206,616.6c0,5.124-33.579,9.278-75,9.278s-75-4.154-75-9.278,30.873-16.624,72.294-16.624S206,611.48,206,616.6Z" transform="translate(-45.175 -484.005)" fill="#3f3d56"/>
    <path id="Path_486" data-name="Path 486" d="M574.429,553.062c0,7.351,4.612,13.3,10.311,13.3" transform="translate(-463.392 -446.156)" fill="#3f3d56"/>
    <path id="Path_487" data-name="Path 487" d="M627.769,565.738c0-7.434,5.146-13.449,11.506-13.449" transform="translate(-506.422 -445.532)" fill="#6c63ff"/>
    <path id="Path_488" data-name="Path 488" d="M593.755,556.509c0,6.983,2.941,12.633,6.575,12.633" transform="translate(-478.983 -448.936)" fill="#6c63ff"/>
    <path id="Path_489" data-name="Path 489" d="M627.769,550.146c0-9.5,5.948-17.185,13.3-17.185" transform="translate(-506.422 -429.941)" fill="#3f3d56"/>
    <path id="Path_490" data-name="Path 490" d="M616.548,619.051a5.36,5.36,0,0,0,1.9-.359c.441-.314,2.249-.689,2.359-.185s2.2,2.5.547,2.516a13.982,13.982,0,0,1-4.276-.525C616.641,620.23,616.548,619.051,616.548,619.051Z" transform="translate(-497.37 -498.752)" fill="#a8a8a8"/>
    <path id="Path_491" data-name="Path 491" d="M621.385,624.138a13.982,13.982,0,0,1-4.276-.525c-.335-.2-.468-.936-.513-1.274l-.049,0s.093,1.179.532,1.447a13.982,13.982,0,0,0,4.276.525c.477,0,.641-.173.632-.424C621.922,624.04,621.74,624.135,621.385,624.138Z" transform="translate(-497.37 -502.042)" opacity="0.2" style="mix-blend-mode: normal;isolation: isolate"/>
    <ellipse id="Ellipse_123" data-name="Ellipse 123" cx="25.515" cy="4.059" rx="25.515" ry="4.059" transform="translate(61.276 127.574)" opacity="0.1" style="mix-blend-mode: normal;isolation: isolate"/>
    <rect id="Rectangle_128" data-name="Rectangle 128" width="2.513" height="5.799" transform="translate(95.49 122.548)" fill="#ffb9b9"/>
    <rect id="Rectangle_129" data-name="Rectangle 129" width="9.665" height="17.397" transform="translate(88.531 44.262)" fill="#ff6584"/>
    <path id="Path_492" data-name="Path 492" d="M504.7,399.312l.334,2.676-8.809,2.676-1.115-4.906Z" transform="translate(-399.406 -322.126)" fill="#ffb9b9"/>
    <path id="Path_493" data-name="Path 493" d="M464.2,262.661s-.223,2.007-.669,2.007a9.393,9.393,0,0,0-2.007.781l-.446,2.119,3.122,1.9,5.129-.557,1.45-2.23-1.45-1.45s-1.227-2.676-.781-3.234S464.2,262.661,464.2,262.661Z" transform="translate(-371.951 -211.232)" fill="#ffb9b9"/>
    <path id="Path_494" data-name="Path 494" d="M464.2,262.661s-.223,2.007-.669,2.007a9.393,9.393,0,0,0-2.007.781l-.446,2.119,3.122,1.9,5.129-.557,1.45-2.23-1.45-1.45s-1.227-2.676-.781-3.234S464.2,262.661,464.2,262.661Z" transform="translate(-371.951 -211.232)" opacity="0.1" style="mix-blend-mode: normal;isolation: isolate"/>
    <path id="Path_495" data-name="Path 495" d="M395.116,625.439s-1,6.69-2.23,7.136,4.683,1.227,4.683,1.227l.446-2.453s.112-4.46.558-5.129S395.116,625.439,395.116,625.439Z" transform="translate(-316.806 -504.542)" fill="#ffb9b9"/>
    <path id="Path_496" data-name="Path 496" d="M413.832,409.509s16.168-2.9,16.28-3.457,3.345,4.237,1.338,13.6-7.025,31.445-7.025,31.445-5.129,1.561-5.018.334,1.784-22.524,1.784-22.524l-1.115-9.032-1.9,1.115-7.917,15.611L406.249,450.1s-5.129.892-4.349-1,3.345-16.614,3.345-16.614l7.025-20.74S412.047,409.509,413.832,409.509Z" transform="translate(-324.148 -327.528)" fill="#2f2e41"/>
    <circle id="Ellipse_124" data-name="Ellipse 124" cx="4.683" cy="4.683" r="4.683" transform="translate(89.07 43.568)" fill="#ffb9b9"/>
    <path id="Path_497" data-name="Path 497" d="M470.564,279.9s-2.23,2.119-7.471,1.561,1.45,11.931,1.45,11.931l2.119,12.6s9.367-1.115,9.7-3.234S470.564,279.9,470.564,279.9Z" transform="translate(-371.96 -225.799)" fill="#f2f2f2"/>
    <path id="Path_498" data-name="Path 498" d="M445.048,282.212a8.071,8.071,0,0,1-3.68-5.018c-1-3.68-1.9-7.471-2.453-7.359a28.959,28.959,0,0,0-6.251,2.9c-.261.208-.421.4-.439.552-.112,1,4.014,11.039,4.014,11.039s3.234,7.248,1.9,9.59-1.45,5.352,1,5.129,10.593-.669,9.478-6.913c0,0,2.119,4.349,8.029,1.227,0,0,3.568-.558,3.457-1.784s-5.687-11.82-5.687-11.82-.892-4.683.781-6.467l-3.791-4.46s-.892-1.338-1.784-.669a23.022,23.022,0,0,1-3.234,1.9c-.335.112-.555-.4-.555-.4a9.7,9.7,0,0,0-.895,5.2A56.777,56.777,0,0,1,445.048,282.212Z" transform="translate(-348.674 -216.176)" fill="#2f2e41"/>
    <path id="Path_499" data-name="Path 499" d="M365.968,645.2s-.249-.781-1.686,0c0,0,.459-2.453-1.1-2.453s-2.119,2.9-2.119,2.9-.446,1.9-3.457,2.676-.669,3.457,1.45,3.457,4.906-1.673,4.906-1.673,5.8.112,5.91-1-.557-4.46-1-4.46-1.338,1.561-1.338,1.561Z" transform="translate(-287.323 -518.503)" fill="#2f2e41"/>
    <path id="Path_500" data-name="Path 500" d="M489.641,643.207s-1.561-1.673-2.453,1.115-1.561,3.9-1,4.349,1,.223.781,1.115a2.607,2.607,0,0,0,2.676,2.788,2.2,2.2,0,0,0,2.453-2.453,5.938,5.938,0,0,0-1-2.23l-.892-3.122Z" transform="translate(-392.041 -518.474)" fill="#2f2e41"/>
    <path id="Path_501" data-name="Path 501" d="M510.788,239.524l-5.91,2.007s-5.352,3.122-3.011,3.791,4.349-2.007,4.349-2.007l5.129-1.338Z" transform="translate(-404.379 -193.224)" fill="#ffb9b9"/>
    <path id="Path_502" data-name="Path 502" d="M451.144,207.873a8.648,8.648,0,0,0-1.791,1.8c-1.079,1.35-2.137,2.962-1.871,4.67.1.649.389,1.252.551,1.888a9.948,9.948,0,0,1,.189,2.642,3.564,3.564,0,0,1-.138,1.114,7.352,7.352,0,0,1-.549,1.016,6.967,6.967,0,0,0-.551,3.324,2.835,2.835,0,0,0,.153,1.127,4.488,4.488,0,0,0,.646.9,3.9,3.9,0,0,1,.6,3.531,1.53,1.53,0,0,0,1.39-.876,1.937,1.937,0,0,1-.5,1.576c1.277-.379,2.645-1.019,3.111-2.266a4.791,4.791,0,0,0,.229-1.31c.248-3.129.389-6.375-.733-9.307a12.32,12.32,0,0,1-.968-2.843,2.445,2.445,0,0,1,1.163-2.561,1.056,1.056,0,0,0,.319.672c.2.151.581.056.585-.2l.442.616a1.081,1.081,0,0,0,.42-.367l.3.371.645-.469.56.6a1.191,1.191,0,0,0,.492-.535c.12.18.269.378.485.4.47.043.567-.7.977-.935a.692.692,0,0,1,.864.262,1.411,1.411,0,0,1,.174.955c-.17,1.533-1.478,2.932-1.09,4.425.218.839.953,1.513,1.008,2.378.044.692-.362,1.346-.356,2.04a3.378,3.378,0,0,0,1.116,2.1q1.463,1.6,3.079,3.053l-.333-.583a1.081,1.081,0,0,1,.848.312,1.467,1.467,0,0,0-.213-1,15.987,15.987,0,0,1-1.728-5.969c-.15-2.894.89-5.834.231-8.656a7.471,7.471,0,0,0-2.518-4.026,3,3,0,0,0-1.862-.858,14.048,14.048,0,0,0-2.653.021A6.07,6.07,0,0,0,451.144,207.873Z" transform="translate(-360.577 -166.864)" fill="#ff6584"/>
    <path id="Path_503" data-name="Path 503" d="M526.838,234.51a9.03,9.03,0,0,0,1.784,0,4.641,4.641,0,0,0,1.338-.669l4.237-3.122-3.68.557s.669-5.129.446-5.241,10.816-2.23,10.593,1.226-6.467,10.259-10.036,11.6l-2.342.334Z" transform="translate(-425.001 -181.743)" fill="#2f2e41"/>
    <rect id="Rectangle_130" data-name="Rectangle 130" width="52.577" height="12.371" transform="translate(61.276 92.298)" fill="#fff"/>
    <rect id="Rectangle_131" data-name="Rectangle 131" width="39.046" height="6.572" transform="translate(67.945 95.101)" fill="#3f3d56"/>
    <path id="Path_504" data-name="Path 504" d="M376.754,498.36c-.015-.169-.761-.244-1.784-.2.593-.834.936-1.5.8-1.605s-.638.329-1.262,1.024c-.059-.932-.2-1.586-.356-1.586s-.321.777-.37,1.846c-.868-.625-1.57-.991-1.678-.855s.366.682,1.113,1.341c-.985.146-1.679.352-1.663.518s.761.243,1.784.2c-.593.835-.936,1.5-.8,1.605s.638-.329,1.262-1.024c.059.932.2,1.586.356,1.586s.321-.778.37-1.846c.868.625,1.57.991,1.678.855s-.366-.682-1.113-1.341C376.075,498.731,376.769,498.525,376.754,498.36Z" transform="translate(-299.735 -400.117)" fill="#fff"/>
    <path id="Path_505" data-name="Path 505" d="M410.754,498.36c-.015-.169-.761-.244-1.784-.2.593-.834.936-1.5.8-1.605s-.638.329-1.262,1.024c-.059-.932-.2-1.586-.356-1.586s-.321.777-.37,1.846c-.868-.625-1.57-.991-1.678-.855s.366.682,1.113,1.341c-.985.146-1.679.352-1.663.518s.761.243,1.784.2c-.593.835-.936,1.5-.8,1.605s.638-.329,1.262-1.024c.059.932.2,1.586.356,1.586s.321-.778.37-1.846c.868.625,1.57.991,1.678.855s-.366-.682-1.113-1.341C410.075,498.731,410.769,498.525,410.754,498.36Z" transform="translate(-327.163 -400.117)" fill="#fff"/>
    <path id="Path_506" data-name="Path 506" d="M444.754,498.36c-.015-.169-.761-.244-1.784-.2.593-.834.936-1.5.8-1.605s-.638.329-1.262,1.024c-.059-.932-.2-1.586-.356-1.586s-.321.777-.37,1.846c-.868-.625-1.57-.991-1.678-.855s.366.682,1.113,1.341c-.985.146-1.679.352-1.663.518s.761.243,1.784.2c-.593.835-.936,1.5-.8,1.605s.638-.329,1.262-1.024c.059.932.2,1.586.356,1.586s.321-.778.37-1.846c.868.625,1.57.991,1.678.855s-.366-.682-1.113-1.341C444.075,498.731,444.769,498.525,444.754,498.36Z" transform="translate(-354.591 -400.117)" fill="#fff"/>
    <path id="Path_507" data-name="Path 507" d="M478.754,498.36c-.015-.169-.761-.244-1.784-.2.593-.834.936-1.5.8-1.605s-.638.329-1.262,1.024c-.059-.932-.2-1.586-.356-1.586s-.321.777-.37,1.846c-.868-.625-1.57-.991-1.678-.855s.366.682,1.113,1.341c-.985.146-1.679.352-1.663.518s.761.243,1.784.2c-.593.835-.936,1.5-.8,1.605s.638-.329,1.262-1.024c.059.932.2,1.586.356,1.586s.321-.778.37-1.846c.868.625,1.57.991,1.678.855s-.366-.682-1.113-1.341C478.075,498.731,478.769,498.525,478.754,498.36Z" transform="translate(-382.019 -400.117)" fill="#fff"/>
    <path id="Path_508" data-name="Path 508" d="M512.754,498.36c-.015-.169-.761-.244-1.784-.2.593-.834.936-1.5.8-1.605s-.638.329-1.262,1.024c-.059-.932-.2-1.586-.356-1.586s-.321.777-.37,1.846c-.868-.625-1.57-.991-1.678-.855s.366.682,1.113,1.341c-.985.146-1.679.352-1.663.518s.761.243,1.784.2c-.593.835-.936,1.5-.8,1.605s.638-.329,1.262-1.024c.059.932.2,1.586.356,1.586s.321-.778.37-1.846c.868.625,1.57.991,1.678.855s-.366-.682-1.113-1.341C512.075,498.731,512.769,498.525,512.754,498.36Z" transform="translate(-409.446 -400.117)" fill="#fff"/>
    <path id="Path_509" data-name="Path 509" d="M428.572,447.283s-.557,7.359,2.119,7.694.223-8.363.223-8.363Z" transform="translate(-345.69 -360.284)" fill="#ffb9b9"/>
    <path id="Path_510" data-name="Path 510" d="M425.358,294.325l-.781.223s-3.234,25.869-1.115,30.887c0,0,2.23-1.226,3.345-1l1.784-21.075Z" transform="translate(-341.027 -237.432)" fill="#2f2e41"/>
  </g>
</svg>
