<svg xmlns="http://www.w3.org/2000/svg" width="1920" height="416.644" viewBox="0 0 1920 416.644">
  <g id="Group_1384" data-name="Group 1384" transform="translate(0 -1362.146)">
    <rect id="Rectangle_1900" data-name="Rectangle 1900" width="1920" height="384" transform="translate(0 1377)" fill="#3b5b13"/>
    <g id="Group_1371" data-name="Group 1371" transform="translate(1529.805 1377)">
      <path id="Path_2431" data-name="Path 2431" d="M494.318,163.719c25.14-27.54,136.671-142.287,156.833-110.2C658.557,65.3,594.579,160.749,494.318,163.719Z" transform="translate(-494.318 40.245)" fill="none" stroke="#89a16d" stroke-linecap="round" stroke-linejoin="round" stroke-width="1.5"/>
      <path id="Path_2432" data-name="Path 2432" d="M621.838,96.791c-49.256,72.431-37,119.6,4.042,155.152-10.531-58.62-12.609-60.355,14.608-99.117,39.031-55.587,28.961-99.215,16.8-100.072C647.236,52.045,627.625,88.281,621.838,96.791Z" transform="translate(-471.896 41.999)" fill="none" stroke="#89a16d" stroke-linecap="round" stroke-linejoin="round" stroke-width="1.5"/>
      <path id="Path_2433" data-name="Path 2433" d="M631.26,36.042c-64.61,25.724-80.827,73.76-126.428,59.028,18.72-9.011,31.4-28.227,46.633-43.231C607.858-3.7,707.259-6.241,692.962,23.348,688.084,33.445,672.722,19.535,631.26,36.042Z" transform="translate(-491.847 24.557)" fill="none" stroke="#89a16d" stroke-linecap="round" stroke-linejoin="round" stroke-width="1.5"/>
      <path id="Path_2434" data-name="Path 2434" d="M703.624,126.562c25.5,21.436,44.768,13.724,102.123-2.626-16.571-20.92-79.656-9.2-102.794-60.973-4.441-9.933-8.886-37.265-22.152-20.7C662.424,65.207,686.224,111.936,703.624,126.562Z" transform="translate(-452.052 36.314)" fill="none" stroke="#89a16d" stroke-linecap="round" stroke-linejoin="round" stroke-width="1.5"/>
      <path id="Path_2435" data-name="Path 2435" d="M715.634,63.658c8.056,32.308,37.721,29.943,46.284,49.165,8.422-45.467-7.14-51.2-21.241-66.426-12.6-13.607-5.17-44.064-17.821-34.219C713.354,19.571,713.077,53.4,715.634,63.658Z" transform="translate(-442.63 26.608)" fill="none" stroke="#89a16d" stroke-linecap="round" stroke-linejoin="round" stroke-width="1.5"/>
      <path id="Path_2436" data-name="Path 2436" d="M515.073,171.8c43.7-18.549,77.388-57.478,117.487-84.142,57.7-38.367,128.9-51.338,177.268-104.466" transform="translate(-489.44 16.806)" fill="none" stroke="#89a16d" stroke-linecap="round" stroke-linejoin="round" stroke-width="1.5"/>
      <path id="Path_2437" data-name="Path 2437" d="M606.316,211.167C598.8,139.7,642.57,116.936,654.99,78.748c4.613-14.181,9.775-35.185,22.955-44.534" transform="translate(-468.2 35.287)" fill="none" stroke="#89a16d" stroke-linecap="round" stroke-linejoin="round" stroke-width="1.5"/>
      <path id="Path_2438" data-name="Path 2438" d="M533.016,76.11c123.963-92.353,150.108-57.8,190.909-47.825" transform="translate(-485.224 27.841)" fill="none" stroke="#89a16d" stroke-linecap="round" stroke-linejoin="round" stroke-width="1.5"/>
      <path id="Path_2439" data-name="Path 2439" d="M751.947,95.645C744.635,74.035,704.5,45.656,734.231.855" transform="translate(-440.48 23.203)" fill="none" stroke="#89a16d" stroke-linecap="round" stroke-linejoin="round" stroke-width="1.5"/>
      <path id="Path_2440" data-name="Path 2440" d="M780.029,129.475c-95.9,5.516-118.109-82.921-72.821-112.056" transform="translate(-449.589 29.203)" fill="none" stroke="#89a16d" stroke-linecap="round" stroke-linejoin="round" stroke-width="1.5"/>
    </g>
    <g id="Group_1373" data-name="Group 1373" transform="translate(17 1469.995)">
      <path id="Path_2431-2" data-name="Path 2431" d="M651.732,47.9c-25.14,27.54-136.671,142.287-156.833,110.2C487.493,146.321,551.471,50.874,651.732,47.9Z" transform="translate(-298.037 42.073)" fill="none" stroke="#89a16d" stroke-linecap="round" stroke-linejoin="round" stroke-width="1.5"/>
      <path id="Path_2432-2" data-name="Path 2432" d="M636.057,207.9c49.256-72.431,37-119.6-4.042-155.152,10.531,58.621,12.609,60.355-14.608,99.117-39.031,55.587-28.961,99.215-16.8,100.072C610.659,252.642,630.27,216.406,636.057,207.9Z" transform="translate(-432.304 -52.744)" fill="none" stroke="#89a16d" stroke-linecap="round" stroke-linejoin="round" stroke-width="1.5"/>
      <path id="Path_2433-2" data-name="Path 2433" d="M567.924,66.372c64.61-25.724,80.827-73.76,126.428-59.028-18.72,9.011-31.4,28.227-46.633,43.231-56.393,55.538-155.794,58.08-141.5,28.491C511.1,68.97,526.463,82.88,567.924,66.372Z" transform="translate(-353.643 166.97)" fill="none" stroke="#89a16d" stroke-linecap="round" stroke-linejoin="round" stroke-width="1.5"/>
      <path id="Path_2434-2" data-name="Path 2434" d="M776.288,50.165c-25.5-21.436-44.768-13.724-102.123,2.626,16.571,20.92,79.656,9.2,102.794,60.973,4.441,9.933,8.886,37.265,22.152,20.7C817.488,111.52,793.688,64.791,776.288,50.165Z" transform="translate(-674.165 80.901)" fill="none" stroke="#89a16d" stroke-linecap="round" stroke-linejoin="round" stroke-width="1.5"/>
      <path id="Path_2435-2" data-name="Path 2435" d="M762.922,59.42c-8.056-32.308-37.721-29.943-46.284-49.165-8.422,45.467,7.14,51.2,21.241,66.426,12.6,13.607,5.17,44.064,17.821,34.219C765.2,103.507,765.479,69.676,762.922,59.42Z" transform="translate(-682.232 144.256)" fill="none" stroke="#89a16d" stroke-linecap="round" stroke-linejoin="round" stroke-width="1.5"/>
      <path id="Path_2436-2" data-name="Path 2436" d="M809.828-16.806c-43.7,18.549-77.388,57.478-117.487,84.142-57.7,38.367-128.9,51.338-177.269,104.466" transform="translate(-481.766 122.14)" fill="none" stroke="#89a16d" stroke-linecap="round" stroke-linejoin="round" stroke-width="1.5"/>
      <path id="Path_2437-2" data-name="Path 2437" d="M677.084,34.214c7.514,71.468-36.254,94.23-48.674,132.419-4.613,14.181-9.775,35.185-22.955,44.534" transform="translate(-461.505 13.274)" fill="none" stroke="#89a16d" stroke-linecap="round" stroke-linejoin="round" stroke-width="1.5"/>
      <path id="Path_2438-2" data-name="Path 2438" d="M723.925,13.659c-123.963,92.353-150.108,57.8-190.909,47.825" transform="translate(-418.023 176.332)" fill="none" stroke="#89a16d" stroke-linecap="round" stroke-linejoin="round" stroke-width="1.5"/>
      <path id="Path_2439-2" data-name="Path 2439" d="M723.4.855c7.313,21.61,47.443,49.989,17.716,94.79" transform="translate(-681.177 174.238)" fill="none" stroke="#89a16d" stroke-linecap="round" stroke-linejoin="round" stroke-width="1.5"/>
      <path id="Path_2440-2" data-name="Path 2440" d="M684.647,17.666c95.9-5.516,118.109,82.921,72.821,112.056" transform="translate(-661.393 117.597)" fill="none" stroke="#89a16d" stroke-linecap="round" stroke-linejoin="round" stroke-width="1.5"/>
    </g>
    <path id="Path_2459" data-name="Path 2459" d="M158.61,48.916C133.149,46.9,108.493,34.291,90.648,14.158c9.25,68.334,56.789,23.106,57.036,96.816-23.106-5.329-43.372-23.838-52.431-47.882-2.1,64.047,40.8,35.272,27.857,110.177-31.595-18.479-36.26-60.992-32.618-100.246-8.182,27.237-28.665,49.6-53.44,58.35.051-23.314,13.411-45.957,32.718-55.447C81.834,70,94.415,67.833,87.908,32.91c-12.024,40.155-44.516,33.384-54.759,45.9C41.084,6.386,80.319,39.156,80.392,8.151c.009-4.419-3.235-9.838.766-13.771,2.156-2.119,6.665-3.534,8.271.2.6,1.4.47,3.062.953,4.518,3.1,9.353,16.5,3.043,22.349,2.906,9.8-.231,27.981,8.643,37.441,22.942C151.447,26.876,159.973,49.019,158.61,48.916Z" transform="matrix(-0.921, 0.391, -0.391, -0.921, 1904.838, 1709.636)" fill="#75895c" opacity="0.15"/>
    <path id="Path_2460" data-name="Path 2460" d="M125.461,56.654C100,54.639,75.344,42.029,57.5,21.9,66.749,90.23,114.288,45,114.535,118.712,91.429,113.383,71.162,94.874,62.1,70.83,60,134.877,102.9,106.1,89.96,181.008,58.365,162.529,53.7,120.016,57.342,80.761,49.16,108,28.677,130.362,3.9,139.112,3.952,115.8,17.313,93.155,36.62,83.665c12.066-5.93,24.646-8.094,18.14-43.017C42.735,80.8,10.243,74.032,0,86.545,7.935,14.124,47.17,46.894,47.243,15.889c.009-4.419-3.235-9.838.766-13.771,2.156-2.119,6.665-3.534,8.271.2.6,1.4.47,3.062.953,4.518,3.1,9.353,16.5,3.043,22.349,2.906,9.8-.231,27.981,8.643,37.441,22.942C118.3,34.614,126.824,56.757,125.461,56.654Z" transform="matrix(0.921, -0.391, 0.391, 0.921, 26.652, 1411.225)" fill="#75895c" opacity="0.15"/>
  </g>
</svg>
