<svg id="Home" xmlns="http://www.w3.org/2000/svg" width="15" height="15.789" viewBox="0 0 15 15.789">
  <path id="Home-2" data-name="Home" d="M5.238,14.821V12.407a1.12,1.12,0,0,1,1.124-1.116H8.631a1.128,1.128,0,0,1,.795.327,1.112,1.112,0,0,1,.329.789v2.414a.958.958,0,0,0,.281.684.972.972,0,0,0,.687.284h1.548A2.732,2.732,0,0,0,14.2,15a2.692,2.692,0,0,0,.8-1.913V6.211a1.952,1.952,0,0,0-.707-1.5L9.027.534A2.445,2.445,0,0,0,5.91.59L.763,4.709A1.953,1.953,0,0,0,0,6.211v6.87a2.719,2.719,0,0,0,2.729,2.709H4.241a.972.972,0,0,0,.975-.961Z" transform="translate(0 0)" fill="#ccc"/>
</svg>
