<svg xmlns="http://www.w3.org/2000/svg" width="20.61" height="14.989" viewBox="0 0 20.61 14.989">
  <path id="ic_local_shipping_24px" d="M18.8,7.747H15.989V4H2.874A1.879,1.879,0,0,0,1,5.874V16.179H2.874a2.811,2.811,0,0,0,5.621,0h5.621a2.811,2.811,0,0,0,5.621,0H21.61V11.495ZM5.684,17.584a1.405,1.405,0,1,1,1.405-1.405A1.4,1.4,0,0,1,5.684,17.584ZM18.331,9.153l1.836,2.342H15.989V9.153Zm-1.405,8.432a1.405,1.405,0,1,1,1.405-1.405A1.4,1.4,0,0,1,16.926,17.584Z" transform="translate(-1 -4)" fill="#ccc"/>
</svg>
