<svg xmlns="http://www.w3.org/2000/svg" width="28" height="25" viewBox="0 0 28 25">
  <g id="Icon_love_outline" transform="translate(-0.32)">
    <path id="Shape" d="M14,25a1.414,1.414,0,0,1-1-.414L2.326,13.849A8.058,8.058,0,0,1,0,8.179,8.265,8.265,0,0,1,8.33,0,6.386,6.386,0,0,1,12.5,1.831,14.7,14.7,0,0,1,14,3.381a14.712,14.712,0,0,1,1.5-1.55A6.386,6.386,0,0,1,19.67,0,8.265,8.265,0,0,1,28,8.179a8.042,8.042,0,0,1-2.526,5.868L15,24.586A1.4,1.4,0,0,1,14,25ZM8.33,2.778a5.473,5.473,0,0,0-5.53,5.4A5.316,5.316,0,0,0,4.331,11.91L14,21.634l9.494-9.551a.313.313,0,0,1,.029-.029A5.3,5.3,0,0,0,25.2,8.179a5.473,5.473,0,0,0-5.53-5.4,3.746,3.746,0,0,0-2.315,1.134A15,15,0,0,0,15.14,6.469a1.407,1.407,0,0,1-2.281,0,15.045,15.045,0,0,0-2.214-2.557A3.747,3.747,0,0,0,8.33,2.778Z" transform="translate(0.32 0)" fill="#ccc"/>
  </g>
</svg>
