<svg id="Icon_share_ouline" xmlns="http://www.w3.org/2000/svg" width="24" height="25" viewBox="0 0 24 25">
  <path id="Shape" d="M19.765,25A4.218,4.218,0,0,1,15.6,21.6l-8.534-6a4.27,4.27,0,0,1-2.831,1.066,4.167,4.167,0,1,1,0-8.333,4.253,4.253,0,0,1,2.9,1.133l8.429-4.739a4.09,4.09,0,0,1-.038-.561,4.236,4.236,0,0,1,8.471,0,4.206,4.206,0,0,1-4.235,4.167,4.26,4.26,0,0,1-2.9-1.134L8.433,11.939a4.337,4.337,0,0,1,.038.561,4.237,4.237,0,0,1-.05.639L16.19,18.6A4.212,4.212,0,1,1,19.765,25Zm0-5.555a1.405,1.405,0,0,0-1.413,1.378.068.068,0,0,1,0,.023,1.412,1.412,0,1,0,1.413-1.4ZM4.235,11.111A1.389,1.389,0,1,0,5.646,12.5,1.4,1.4,0,0,0,4.235,11.111Zm15.53-8.334a1.389,1.389,0,1,0,1.412,1.389A1.4,1.4,0,0,0,19.765,2.777Z" transform="translate(0 0)" fill="#ccc"/>
</svg>
