<svg xmlns="http://www.w3.org/2000/svg" width="67.669" height="56.793" viewBox="0 0 67.669 56.793">
  <g id="Group_1306" data-name="Group 1306" transform="translate(67.669 30.207) rotate(120)">
    <path id="Path_2293" data-name="Path 2293" d="M17.988,9.832c0,.841.038,1.616-.007,2.387-.113,1.941-.27,3.88-.393,5.821a.4.4,0,0,1-.351.422c-1.838.508-3.695.959-5.5,1.56a27.97,27.97,0,0,0-5.72,2.551A7.157,7.157,0,0,0,3.4,25.27c-.053.1-.105.195-.15.3-.307.689-.141,1.106.566,1.359a4.854,4.854,0,0,0,3.085.036,13.006,13.006,0,0,0,4.841-2.831c1.527-1.336,2.957-2.783,4.432-4.179.416-.394.842-.777,1.349-1.245-.071.713-.118,1.309-.193,1.9q-.468,3.7-.951,7.4c-.073.558-.082.535-.638.568a26.223,26.223,0,0,0-9.612,2.061,13.666,13.666,0,0,0-3.453,2.246,4.322,4.322,0,0,0-.681.772c-.336.494-.186.867.4,1.024a5.137,5.137,0,0,0,2.309.046,25.9,25.9,0,0,0,8.64-3.308A33.024,33.024,0,0,0,16,29.439c.037-.028.076-.054.193-.137-.269,1.342-.49,2.612-.785,3.864-.325,1.376-.725,2.734-1.081,4.1a.565.565,0,0,1-.453.453c-1.767.485-3.554.917-5.289,1.5A27.411,27.411,0,0,0,2.837,41.8,7.07,7.07,0,0,0,.494,44.117a5.639,5.639,0,0,0-.338.614c-.328.719-.147,1.135.608,1.393a5.125,5.125,0,0,0,3.61-.174,15.962,15.962,0,0,0,5.009-3.273c1.394-1.284,2.737-2.624,4.1-3.939a1.814,1.814,0,0,1,.467-.346c-.035.118-.063.238-.1.353q-1.128,3.084-2.263,6.166a.809.809,0,0,1-.213.334,20.31,20.31,0,0,0-4.384,5.388,25.63,25.63,0,0,0-2.964,6.494,14.324,14.324,0,0,0-.268,2.26,1.372,1.372,0,0,0,.084.507c.137.451.452.639.878.445a4.72,4.72,0,0,0,1.149-.715,16.924,16.924,0,0,0,4.722-6.955,31,31,0,0,0,1.957-7.781.711.711,0,0,1,.031-.181c.538-1.426,1.079-2.851,1.654-4.369.166.648.317,1.215.455,1.784.5,2.044.935,4.1,1.5,6.13a13.717,13.717,0,0,0,2.048,4.357,5.247,5.247,0,0,0,2.831,2.139,2.468,2.468,0,0,0,.579.1.722.722,0,0,0,.8-.664,6.46,6.46,0,0,0-.271-3.31,18.972,18.972,0,0,0-2.277-4.124,39.288,39.288,0,0,0-4.159-5.127q-.635-.695-1.237-1.419a.494.494,0,0,1-.1-.384c.563-2,1.141-4,1.717-5.993a.65.65,0,0,1,.074-.119c.117.446.206.869.338,1.279A21.577,21.577,0,0,0,19.874,41.2a18.773,18.773,0,0,0,3.192,3.617,8.28,8.28,0,0,0,1.685,1.041c.721.334,1.089.04,1.025-.756a8.816,8.816,0,0,0-.949-2.973,18,18,0,0,0-4.475-5.81,26.855,26.855,0,0,0-3.889-3.107.424.424,0,0,1-.127-.357c.363-2.147.741-4.291,1.112-6.437.058-.334.1-.671.159-1.12.129.2.2.3.267.409,1.1,1.906,2.185,3.826,3.315,5.715a16.5,16.5,0,0,0,3.957,4.685,5.254,5.254,0,0,0,3.11,1.215c.086,0,.172.01.258.007.93-.033,1.228-.415,1.048-1.335A7.7,7.7,0,0,0,27.086,31.8a36.109,36.109,0,0,0-6.57-4.934c-.9-.516-1.766-1.075-2.635-1.634a.517.517,0,0,1-.212-.4c.272-2.645.562-5.287.849-7.93a.538.538,0,0,1,.03-.1c.027.015.058.021.065.037A19.574,19.574,0,0,0,23.7,23.567a17.372,17.372,0,0,0,3.924,2.987,7.548,7.548,0,0,0,1.8.609c.59.125.873-.207.723-.8a5.591,5.591,0,0,0-.477-1.233A15.828,15.828,0,0,0,24.4,19.4a27.661,27.661,0,0,0-5.6-3.111c-.224-.085-.208-.227-.2-.4.088-1.8.185-3.59.253-5.386.031-.824,0-1.649,0-2.474,0-.266,0-.532,0-.914.123.189.2.292.26.4.988,1.717,1.965,3.44,2.963,5.152A18.785,18.785,0,0,0,25.6,17.149a6.017,6.017,0,0,0,3.259,1.688,4.825,4.825,0,0,0,.957.033.834.834,0,0,0,.863-1.094,6.923,6.923,0,0,0-1.417-3.207,23.479,23.479,0,0,0-3.671-3.411,44.827,44.827,0,0,0-5.478-3.617c-.429-.263-.987-.465-1.223-.854-.227-.374-.1-.955-.151-1.443q-.252-2.4-.522-4.807C18.189.187,18.1-.028,17.785,0c-.284.028-.439.263-.387.6a53.711,53.711,0,0,1,.637,8.165c0,.742.082.569-.562.756-1.866.542-3.766.986-5.594,1.634a44.157,44.157,0,0,0-4.721,2.082A7.08,7.08,0,0,0,4.043,16.2c-.566,1.02-.358,1.507.764,1.8a5.567,5.567,0,0,0,3.773-.458,18.846,18.846,0,0,0,5.244-3.722c1.28-1.226,2.551-2.462,3.827-3.693C17.744,10.029,17.85,9.949,17.988,9.832Z" transform="translate(0 0)" fill="#fff"/>
  </g>
</svg>
