<svg id="visa-color_large" xmlns="http://www.w3.org/2000/svg" width="66" height="44" viewBox="0 0 66 44">
  <rect id="card_bg" width="66" height="44" rx="4" fill="#2a2a6c"/>
  <path id="visa-logo" d="M23.567,13.188a9.872,9.872,0,0,1-3.607-.68l.6-2.77a6.952,6.952,0,0,0,3.292.832h.088c.986-.014,1.981-.409,1.981-1.26.013-.543-.452-.974-1.718-1.593C22.956,7.108,21.3,6.086,21.3,4.239,21.3,1.743,23.583,0,26.844,0a8.884,8.884,0,0,1,3.1.568l-.581,2.77a6.25,6.25,0,0,0-2.66-.6c-.2,0-.408.01-.61.03-.957.127-1.385.627-1.385,1.067,0,.537.686.9,1.555,1.351,1.379.722,3.094,1.62,3.085,3.733l.07-.111c-.014,2.659-2.282,4.377-5.776,4.377Zm9.179-.11h-3.49L34.228,1.206A1.505,1.505,0,0,1,35.614.263h2.77L41.07,13.075l-3.074,0-.4-1.911h-4.17l-.678,1.911Zm3.3-9.351L34.3,8.532h2.756ZM17.592,13.035H14.267L17.038.222h3.324l-2.77,12.812Zm-7.272-.042H6.7L4.059,2.756a1.393,1.393,0,0,0-.79-1.122A13.737,13.737,0,0,0,0,.554L.084.18H5.721a1.549,1.549,0,0,1,1.537,1.3l1.385,7.41L12.093.18h3.6L10.32,12.992Z" transform="translate(12.688 15.556)" fill="#fff"/>
</svg>
